<?xml version="1.0" encoding="UTF-8" standalone="no"?>
<svg
   xmlns:dc="http://purl.org/dc/elements/1.1/"
   xmlns:cc="http://creativecommons.org/ns#"
   xmlns:rdf="http://www.w3.org/1999/02/22-rdf-syntax-ns#"
   xmlns:svg="http://www.w3.org/2000/svg"
   xmlns="http://www.w3.org/2000/svg"
   xmlns:sodipodi="http://sodipodi.sourceforge.net/DTD/sodipodi-0.dtd"
   xmlns:inkscape="http://www.inkscape.org/namespaces/inkscape"
   version="1.1"
   id="svg2"
   xml:space="preserve"
   width="947.45068"
   height="566"
   viewBox="0 0 947.45068 566"
   sodipodi:docname="logo.ai"><metadata
     id="metadata8"><rdf:RDF><cc:Work
         rdf:about=""><dc:format>image/svg+xml</dc:format><dc:type
           rdf:resource="http://purl.org/dc/dcmitype/StillImage" /></cc:Work></rdf:RDF></metadata><defs
     id="defs6"><clipPath
       clipPathUnits="userSpaceOnUse"
       id="clipPath18"><path
         d="M 0,424.5 H 710.588 V 0 H 0 Z"
         id="path16" /></clipPath></defs><sodipodi:namedview
     pagecolor="#ffffff"
     bordercolor="#666666"
     borderopacity="1"
     objecttolerance="10"
     gridtolerance="10"
     guidetolerance="10"
     inkscape:pageopacity="0"
     inkscape:pageshadow="2"
     inkscape:window-width="640"
     inkscape:window-height="480"
     id="namedview4" /><g
     id="g10"
     inkscape:groupmode="layer"
     inkscape:label="logo"
     transform="matrix(1.3333333,0,0,-1.3333333,0,566)"><g
       id="g12"><g
         id="g14"
         clip-path="url(#clipPath18)"><g
           id="g20"
           transform="translate(664.6674,304.6291)"><path
             d="m 0,0 c -17.787,21.487 -42.911,40.61 -74.674,56.839 -63.298,32.341 -147.057,50.152 -235.849,50.152 -88.792,0 -172.552,-17.811 -235.85,-50.152 C -578.135,40.61 -603.26,21.487 -621.047,0 c -19.532,-23.594 -29.436,-48.999 -29.436,-75.509 0,-26.51 9.904,-51.915 29.436,-75.509 17.787,-21.487 42.911,-40.61 74.674,-56.839 63.298,-32.341 147.058,-50.152 235.85,-50.152 88.791,0 172.551,17.811 235.849,50.152 31.763,16.229 56.887,35.352 74.674,56.839 19.532,23.594 29.436,48.999 29.436,75.509 C 29.436,-48.999 19.532,-23.594 0,0"
             style="fill:#1d1d1b;fill-opacity:1;fill-rule:nonzero;stroke:none"
             id="path22" /></g><g
           id="g24"
           transform="translate(660.0457,300.803)"><path
             d="m 0,0 c -17.264,20.854 -41.751,39.467 -72.782,55.322 -62.469,31.918 -145.259,49.495 -233.12,49.495 -87.86,0 -170.65,-17.577 -233.119,-49.495 C -570.052,39.467 -594.54,20.854 -611.803,0 c -18.618,-22.49 -28.058,-46.607 -28.058,-71.683 0,-25.076 9.44,-49.193 28.058,-71.683 17.263,-20.854 41.751,-39.467 72.782,-55.322 62.468,-31.917 145.259,-49.495 233.119,-49.495 87.861,0 170.651,17.578 233.12,49.495 31.031,15.855 55.518,34.468 72.782,55.322 18.618,22.49 28.057,46.607 28.057,71.683 C 28.057,-46.607 18.618,-22.49 0,0"
             style="fill:#ffffff;fill-opacity:1;fill-rule:nonzero;stroke:none"
             id="path26" /></g><g
           id="g28"
           transform="translate(676.1032,229.1201)"><path
             d="m 0,0 c 0,-90.851 -144.146,-164.5 -321.959,-164.5 -177.813,0 -321.959,73.649 -321.959,164.5 0,90.851 144.146,164.5 321.959,164.5 C -144.146,164.5 0,90.851 0,0"
             style="fill:#ac182d;fill-opacity:1;fill-rule:nonzero;stroke:none"
             id="path30" /></g><g
           id="g32"
           transform="translate(696.4954,342.6457)"><path
             d="m 0,0 c -2.288,2.773 -5.663,4.363 -9.26,4.363 -2.547,0 -4.985,-0.792 -7.049,-2.291 L -341.201,-233.935 -666.094,2.072 c -2.063,1.499 -4.501,2.291 -7.049,2.291 -3.597,0 -6.972,-1.59 -9.26,-4.363 -4.026,-4.88 -3.558,-12.086 1.065,-16.405 l 331.945,-310.129 c 2.23,-2.084 5.139,-3.232 8.192,-3.232 3.052,0 5.961,1.148 8.192,3.232 L -1.064,-16.405 C 3.559,-12.086 4.026,-4.88 0,0"
             style="fill:#1d1d1b;fill-opacity:1;fill-rule:nonzero;stroke:none"
             id="path34" /></g><g
           id="g36"
           transform="translate(691.8673,338.8273)"><path
             d="m 0,0 c -1.182,1.432 -2.898,2.182 -4.632,2.182 -1.225,0 -2.46,-0.375 -3.522,-1.146 L -336.573,-237.532 -664.992,1.036 c -1.062,0.771 -2.297,1.146 -3.523,1.146 -1.734,0 -3.449,-0.749 -4.631,-2.182 -2.018,-2.445 -1.785,-6.039 0.532,-8.203 l 331.945,-310.129 c 1.153,-1.077 2.624,-1.615 4.096,-1.615 1.471,0 2.943,0.538 4.096,1.615 L -0.532,-8.203 C 1.785,-6.039 2.018,-2.445 0,0"
             style="fill:#ffffff;fill-opacity:1;fill-rule:nonzero;stroke:none"
             id="path38" /></g><g
           id="g40"
           transform="translate(23.3492,335.0087)"><path
             d="M 0,0 331.945,-310.129 663.89,0 331.945,-241.13 Z"
             style="fill:#00aca6;fill-opacity:1;fill-rule:nonzero;stroke:none"
             id="path42" /></g><g
           id="g44"
           transform="translate(603.8713,174.3213)"><path
             d="m 0,0 c -2.019,11.914 -4.117,23.814 -6.295,35.7 1.829,12.19 3.659,24.379 5.488,36.568 0.237,1.583 0.356,2.374 0.593,3.956 -1.715,0.258 -2.573,0.385 -4.289,0.638 -24.17,3.48 -48.371,6.521 -72.65,9.128 -1.723,0.18 -2.584,0.268 -4.308,0.443 -0.161,-1.592 -0.242,-2.388 -0.403,-3.98 -0.098,-0.966 -0.147,-1.449 -0.245,-2.415 -2.252,1.108 -4.928,2.381 -7.574,3.548 -6.835,3.016 -14.196,4.856 -21.77,5.51 -17.355,1.497 -34.806,-3.47 -48.242,-14.708 -2.832,-2.369 -5.415,-4.912 -7.706,-7.603 -2.148,4.596 -5.131,8.863 -8.928,12.738 -9.28,9.471 -22.101,14.664 -35.263,14.993 -13.167,0.328 -26.265,-4.167 -36.015,-13.177 -2.275,-2.103 -4.301,-4.37 -6.064,-6.78 -1.745,2.391 -3.75,4.646 -6.001,6.742 -9.72,9.047 -22.774,13.607 -35.996,13.225 -13.625,-0.334 -27.246,-0.83 -40.859,-1.49 -1.728,-0.083 -2.592,-0.126 -4.32,-0.215 0.081,-1.597 0.122,-2.396 0.203,-3.994 0.155,-3.026 0.232,-4.539 0.386,-7.565 -9.759,7.188 -21.944,10.375 -33.951,9.532 -13.149,-0.924 -25.767,-6.646 -34.627,-16.545 -3.883,-4.339 -6.812,-9.137 -8.75,-14.242 -0.644,6.585 -0.966,9.878 -1.61,16.463 -0.11,1.122 -0.165,1.683 -0.275,2.806 -1.176,0.266 -1.764,0.398 -2.941,0.662 -3.972,0.891 -5.962,1.33 -9.947,2.197 -7.301,1.59 -14.885,1.921 -22.446,1.045 -17.325,-2.006 -33.446,-10.439 -44.4,-24.065 -10.428,-12.973 -14.927,-29.692 -12.309,-46.131 2.589,-16.265 11.732,-30.753 25.027,-40.408 13.318,-9.671 29.848,-13.934 46.198,-11.979 9.59,1.147 18.955,4.387 27.117,9.632 0.048,-0.475 0.072,-0.712 0.119,-1.188 0.16,-1.592 0.24,-2.388 0.401,-3.979 1.6,0.16 2.4,0.24 4.001,0.397 25.981,2.443 51.968,4.345 78.028,5.71 3.242,0.157 4.863,0.232 8.106,0.372 21.586,0.854 43.158,1.347 64.76,1.482 3.246,0.008 4.868,0.008 8.114,0 26.08,-0.172 52.112,-0.883 78.163,-2.134 1.604,-0.083 2.407,-0.126 4.011,-0.213 0.087,1.598 0.131,2.396 0.218,3.994 0.318,5.83 0.477,8.744 0.794,14.574 0.622,-0.739 1.265,-1.47 1.919,-2.19 11.085,-12.201 26.409,-19.618 42.8,-20.968 9.623,-0.793 19.442,0.511 28.484,4.017 -0.048,-0.475 -0.072,-0.713 -0.12,-1.188 -0.162,-1.592 -0.242,-2.388 -0.404,-3.98 1.601,-0.162 2.401,-0.244 4.001,-0.41 22.543,-2.434 45.012,-5.257 67.458,-8.476 1.593,-0.235 2.39,-0.354 3.983,-0.593 0.237,1.583 0.356,2.374 0.593,3.956 1.859,12.388 3.718,24.776 5.577,37.164 2.988,-0.448 4.481,-0.676 7.468,-1.138 2.246,-0.348 3.369,-0.524 5.615,-0.88 C 0.552,-3.265 0.369,-2.177 0,0"
             style="fill:#1d1d1b;fill-opacity:1;fill-rule:nonzero;stroke:none"
             id="path46" /></g><g
           id="g48"
           transform="translate(599.7848,173.7119)"><path
             d="m 0,0 c -2.081,12.117 -4.243,24.22 -6.487,36.308 1.829,12.402 3.658,24.804 5.487,37.206 -24.113,3.472 -48.258,6.506 -72.48,9.107 -0.348,-3.347 -0.521,-5.02 -0.869,-8.367 0,0 -6.681,3.521 -13.052,6.331 -6.372,2.81 -13.235,4.525 -20.299,5.134 -16.205,1.398 -32.496,-3.237 -45.05,-13.718 -4.839,-4.04 -8.808,-8.534 -11.888,-13.438 -1.731,6.946 -5.336,13.355 -10.759,18.878 -8.481,8.64 -20.187,13.385 -32.207,13.685 -12.026,0.3 -23.988,-3.801 -32.9,-12.022 -3.855,-3.556 -6.888,-7.577 -9.088,-11.947 -2.182,4.359 -5.199,8.369 -9.021,11.919 -8.882,8.252 -20.799,12.41 -32.87,12.06 -13.593,-0.332 -27.182,-0.828 -40.763,-1.486 0.345,-7.129 0.518,-10.694 0.863,-17.824 -1.525,1.772 -3.216,3.454 -5.085,5.027 -9.267,7.796 -21.376,11.404 -33.372,10.56 -12.007,-0.846 -23.532,-6.109 -31.634,-15.098 -6.979,-7.743 -10.875,-17.854 -10.612,-28.316 -1.595,-0.159 -2.393,-0.239 -3.988,-0.402 -1.106,11.019 -2.212,22.038 -3.318,33.058 -3.965,0.888 -5.951,1.326 -9.928,2.191 -6.806,1.48 -13.877,1.788 -20.929,0.972 -16.175,-1.873 -31.225,-9.744 -41.463,-22.457 -9.76,-12.12 -13.993,-27.744 -11.585,-43.119 2.382,-15.219 10.899,-28.792 23.329,-37.836 12.475,-9.076 28.668,-13.675 43.295,-11.227 11.889,1.99 20.452,6.018 30.92,13.016 0.319,-3.258 0.479,-4.887 0.798,-8.146 26.046,2.449 52.1,4.356 78.225,5.725 3.25,0.158 4.876,0.232 8.127,0.373 21.64,0.856 43.266,1.35 64.923,1.486 3.254,0.008 4.88,0.008 8.134,-10e-4 26.145,-0.172 52.244,-0.885 78.36,-2.139 0.549,10.568 0.823,15.852 1.373,26.42 2.258,-4.066 5.07,-7.928 8.382,-11.579 10.381,-11.446 25.309,-19.129 40.113,-19.653 12.042,-0.426 21.235,1.81 32.887,6.574 -0.339,-3.257 -0.508,-4.886 -0.846,-8.142 22.6,-2.44 45.126,-5.27 67.628,-8.498 2.021,13.71 4.043,27.42 6.065,41.13 C -6.949,1.064 -4.632,0.715 0,0"
             style="fill:#ffffff;fill-opacity:1;fill-rule:nonzero;stroke:none"
             id="path50" /></g><g
           id="g52"
           transform="translate(147.5523,181.1842)"><path
             d="m 0,0 c -4.394,8.656 -6.614,12.977 -11.097,21.605 16.995,2.159 34.002,4.111 51.046,5.857 0.094,-0.954 0.141,-1.431 0.235,-2.384 -0.005,0.044 -0.007,0.066 -0.011,0.111 1.452,-14.726 2.904,-29.451 4.356,-44.177 -0.68,-0.609 -1.019,-0.914 -1.698,-1.524 -7.859,-7.128 -17.851,-11.585 -28.33,-12.844 -12.959,-1.557 -26.183,1.826 -36.725,9.522 -10.456,7.634 -17.609,19.202 -19.543,32.025 -1.952,12.937 1.677,26.182 9.915,36.353 8.621,10.643 21.311,17.305 34.894,18.863 5.907,0.678 11.836,0.429 17.537,-0.808 1.32,-0.286 1.979,-0.43 3.298,-0.719 1.147,-10.808 1.721,-16.213 2.868,-27.021 -3.002,1.26 -4.505,1.886 -7.519,3.133 -4.332,1.79 -8.72,2.394 -13.392,1.84 -7.402,-0.876 -13.212,-4.008 -17.697,-9.528 -4.487,-5.521 -6.176,-11.616 -5.236,-18.605 0.93,-6.912 4.169,-12.293 9.838,-16.494 5.676,-4.206 11.858,-5.829 18.97,-4.986 2.468,0.292 4.838,0.921 7.081,1.876 C 18.334,-3.902 18.106,-1.9 17.65,2.103 10.587,1.3 7.057,0.88 0,0"
             style="fill:#1d1d1b;fill-opacity:1;fill-rule:nonzero;stroke:none"
             id="path54" /></g><g
           id="g56"
           transform="translate(475.6875,188.9423)"><path
             d="m 0,0 c -2.571,9.36 -3.879,14.037 -6.543,23.387 17.073,-1.282 34.116,-2.769 51.153,-4.464 -0.099,-0.953 -0.148,-1.43 -0.246,-2.384 0.004,0.045 0.006,0.067 0.011,0.112 -1.521,-14.719 -3.042,-29.437 -4.563,-44.156 -0.788,-0.461 -1.182,-0.692 -1.969,-1.154 -9.122,-5.411 -19.798,-7.782 -30.314,-6.922 -12.995,1.064 -25.26,7.022 -34.03,16.669 -8.705,9.577 -13.381,22.341 -12.712,35.284 0.674,13.059 6.858,25.312 16.951,33.638 10.555,8.706 24.303,12.697 37.909,11.51 5.918,-0.517 11.674,-1.946 17.01,-4.297 1.236,-0.545 1.853,-0.818 3.087,-1.364 -1.036,-10.82 -1.555,-16.229 -2.591,-27.049 -2.689,1.835 -4.037,2.749 -6.739,4.572 -3.884,2.621 -8.061,4.089 -12.745,4.481 -7.421,0.62 -13.732,-1.288 -19.224,-5.8 -5.492,-4.513 -8.361,-10.147 -8.838,-17.183 -0.471,-6.959 1.623,-12.878 6.331,-18.127 4.713,-5.256 10.438,-8.081 17.569,-8.677 2.474,-0.207 4.92,-0.064 7.308,0.423 0.353,4.014 0.53,6.021 0.884,10.034 C 10.622,-0.842 7.082,-0.548 0,0"
             style="fill:#1d1d1b;fill-opacity:1;fill-rule:nonzero;stroke:none"
             id="path58" /></g><g
           id="g60"
           transform="translate(222.7823,211.7535)"><path
             d="m 0,0 c -0.179,2.329 -0.269,3.494 -0.449,5.823 -0.219,2.852 0.593,5.198 2.57,7.38 1.973,2.178 4.293,3.294 7.289,3.506 2.984,0.21 5.41,-0.563 7.626,-2.431 C 19.276,12.39 20.4,10.174 20.585,7.31 20.735,4.978 20.81,3.813 20.959,1.481 12.573,0.942 8.381,0.646 0,0 m 45.868,8.67 c -0.457,9.317 -4.401,17.219 -11.783,23.419 -7.314,6.142 -16.857,8.966 -26.289,8.305 -9.442,-0.662 -18.533,-4.747 -24.931,-11.868 -6.414,-7.137 -9.183,-15.531 -8.319,-24.892 0.212,-2.294 0.317,-3.44 0.529,-5.734 -3.316,-0.312 -4.973,-0.472 -8.287,-0.801 4.157,-8.336 6.215,-12.511 10.287,-20.872 1.058,-11.466 2.116,-22.932 3.174,-34.399 9.626,0.889 14.441,1.296 24.077,2.039 -0.885,11.479 -1.77,22.958 -2.654,34.438 8.271,0.637 12.408,0.929 20.684,1.462 0.739,-11.49 1.478,-22.98 2.217,-34.469 9.73,0.625 14.597,0.901 24.334,1.378 -1.013,20.665 -2.026,41.33 -3.039,61.994"
             style="fill:#1d1d1b;fill-opacity:1;fill-rule:nonzero;stroke:none"
             id="path62" /></g><g
           id="g64"
           transform="translate(584.8371,218.1626)"><path
             d="m 0,0 c 1.221,8.618 1.831,12.927 3.052,21.545 -17.61,2.433 -35.234,4.647 -52.898,6.646 -1.091,-9.945 -2.182,-19.89 -3.273,-29.835 -3.332,0.366 -4.998,0.545 -8.33,0.895 2.313,-10.096 3.444,-15.145 5.658,-25.247 -1.512,-13.787 -3.025,-27.573 -4.537,-41.359 16.665,-1.829 33.301,-3.919 49.9,-6.27 1.22,8.618 1.831,12.927 3.051,21.545 -10.44,1.478 -15.665,2.175 -26.122,3.483 0.984,7.867 1.476,11.801 2.46,19.667 11.555,-1.489 23.089,-3.056 34.621,-4.705 -1.847,10.18 -2.795,15.269 -4.742,25.447 -10.725,1.519 -16.093,2.235 -26.836,3.579 0.411,3.282 0.616,4.923 1.027,8.206 C -16.173,2.246 -10.779,1.527 0,0"
             style="fill:#1d1d1b;fill-opacity:1;fill-rule:nonzero;stroke:none"
             id="path66" /></g><g
           id="g68"
           transform="translate(316.8995,214.8989)"><path
             d="m 0,0 c -2.004,-2 -4.357,-2.962 -7.416,-3.038 -2.027,-0.049 -3.041,-0.076 -5.067,-0.132 -0.224,8.101 -0.336,12.152 -0.56,20.253 2.099,0.058 3.148,0.085 5.246,0.136 3.096,0.076 5.54,-0.803 7.681,-2.757 C 2.005,12.524 2.987,10.26 2.986,7.342 2.984,4.4 2.004,2 0,0 m 28.198,-36.434 c -0.026,8.473 -2.828,15.843 -8.434,21.925 5.507,6.17 8.325,13.543 8.3,22.019 C 28.035,16.905 24.512,24.995 17.5,31.492 10.488,37.99 1.155,41.284 -8.378,40.952 -18.68,40.7 -28.98,40.354 -39.277,39.914 c 1.367,-31.974 2.733,-63.949 4.1,-95.923 9.649,0.413 14.476,0.583 24.13,0.849 -0.26,9.42 -0.521,18.839 -0.781,28.259 1.998,0.055 2.997,0.081 4.995,0.13 3.005,0.074 5.365,-0.797 7.408,-2.73 2.062,-1.952 3.043,-4.235 3.097,-7.213 0.192,-7.239 0.287,-10.859 0.477,-18.098 9.641,0.174 14.462,0.225 24.104,0.255 -0.022,7.249 -0.033,10.874 -0.055,18.123"
             style="fill:#1d1d1b;fill-opacity:1;fill-rule:nonzero;stroke:none"
             id="path70" /></g><g
           id="g72"
           transform="translate(401.3581,215.8536)"><path
             d="m 0,0 c -8.397,0.26 -12.595,0.364 -20.994,0.518 0.043,2.335 0.064,3.503 0.107,5.839 0.052,2.86 1.084,5.118 3.257,7.102 2.17,1.981 4.584,2.871 7.586,2.797 2.988,-0.074 5.329,-1.075 7.356,-3.144 C -0.638,11.019 0.27,8.706 0.181,5.837 0.109,3.502 0.072,2.335 0,0 M 15.971,29.221 C 9.277,36.029 0.05,39.748 -9.4,39.987 -18.856,40.226 -28.288,37.023 -35.327,30.544 -42.384,24.048 -45.935,15.956 -45.965,6.555 -45.973,4.252 -45.976,3.1 -45.984,0.797 c -3.327,0.005 -4.99,0.003 -8.317,-0.009 3.343,-8.694 4.992,-13.045 8.247,-21.756 -0.037,-11.515 -0.074,-23.03 -0.112,-34.545 9.657,-0.031 14.485,-0.083 24.141,-0.26 0.211,11.512 0.422,23.023 0.633,34.535 8.288,-0.152 12.432,-0.255 20.718,-0.511 -0.357,-11.508 -0.714,-23.016 -1.071,-34.524 9.742,-0.302 14.613,-0.49 24.351,-0.941 0.956,20.668 1.912,41.335 2.868,62.002 0.431,9.319 -2.744,17.56 -9.503,24.433"
             style="fill:#1d1d1b;fill-opacity:1;fill-rule:nonzero;stroke:none"
             id="path74" /></g><g
           id="g76"
           transform="translate(417.2451,304.4462)"><path
             d="m 0,0 c -0.293,-0.919 -0.871,-1.939 -1.717,-3.033 -0.911,-1.179 -2.031,-2.319 -3.326,-3.387 -1.226,-1.011 -2.585,-1.836 -4.036,-2.454 -0.761,-0.324 -1.489,-0.544 -2.197,-0.661 0.002,0.388 -10e-4,0.785 -0.011,1.186 -0.028,1.167 -0.32,2.237 -0.866,3.181 -0.013,0.022 -0.026,0.044 -0.039,0.065 -0.391,0.639 -0.859,1.2 -1.392,1.675 0.011,0.005 0.023,0.01 0.034,0.015 0.022,0.009 0.045,0.018 0.067,0.028 1.243,0.553 2.577,1.084 3.964,1.577 1.372,0.487 2.723,0.912 4.012,1.263 1.26,0.343 2.43,0.613 3.476,0.8 1.138,0.204 1.71,0.218 1.95,0.208 C -0.01,0.461 0.055,0.457 0.114,0.452 0.093,0.333 0.058,0.183 0,0 m -61.187,1.267 c -0.257,-0.929 -0.795,-1.973 -1.598,-3.099 -0.865,-1.213 -1.941,-2.397 -3.192,-3.512 -1.185,-1.056 -2.513,-1.934 -3.938,-2.607 -0.748,-0.354 -1.466,-0.601 -2.169,-0.746 -0.012,0.387 -0.031,0.783 -0.056,1.185 -0.075,1.169 -0.409,2.227 -0.99,3.148 -0.014,0.021 -0.027,0.041 -0.041,0.062 -0.446,0.668 -0.978,1.246 -1.581,1.72 1.665,0.684 3.353,1.366 4.125,1.674 1.355,0.54 2.688,1.017 3.96,1.417 1.246,0.392 2.405,0.707 3.442,0.935 1.128,0.247 1.7,0.283 1.94,0.283 0.071,-0.001 0.136,-0.002 0.195,-0.004 -0.017,-0.12 -0.046,-0.272 -0.097,-0.456 M 160.566,-8.83 c -0.526,0.271 -1.094,0.448 -1.695,0.533 -1.009,0.142 -2.088,0.002 -3.255,-0.358 -0.639,-0.198 -1.83,-0.513 -3.503,-0.962 -1.732,-0.465 -3.865,-1.018 -6.34,-1.649 -2.458,-0.625 -5.202,-1.284 -8.15,-1.961 -2.967,-0.681 -6.01,-1.333 -9.044,-1.942 -3.03,-0.608 -6.035,-1.154 -8.934,-1.622 -2.817,-0.454 -5.425,-0.771 -7.73,-0.908 -3.964,-0.237 -7.15,-0.223 -9.395,0.015 -0.425,0.045 -0.817,0.099 -1.168,0.161 -1.6,0.28 -2.292,0.61 -2.535,0.756 0.021,0.105 0.077,0.29 0.22,0.569 0.599,1.162 1.551,2.444 2.834,3.762 1.699,1.743 3.371,2.912 4.875,3.447 1.517,0.539 2.913,0.768 4.145,0.682 0.178,-0.012 0.357,-0.029 0.532,-0.048 1.073,-0.119 2.025,-0.366 2.826,-0.732 1.283,-0.588 2.308,-1.072 3.038,-1.436 0.838,-0.418 1.704,-0.686 2.562,-0.786 0.61,-0.071 1.22,-0.058 1.81,0.037 1.307,0.209 2.426,0.709 3.314,1.484 1.098,0.959 1.669,2.23 1.586,3.567 -0.055,0.886 -0.495,2.558 -2.768,3.787 -4.299,2.326 -8.464,3.777 -12.299,4.36 -0.541,0.083 -1.082,0.153 -1.609,0.211 C 106.644,2.491 103.6,2.383 100.842,1.821 98.133,1.268 95.596,0.345 93.301,-0.921 93.046,-1.017 92.799,-1.123 92.557,-1.243 92.43,-1.3 91.803,-1.559 89.436,-2.304 87.557,-2.896 85.258,-3.582 82.607,-4.35 79.949,-5.12 77.049,-5.929 73.99,-6.757 c -3.048,-0.825 -5.973,-1.597 -8.696,-2.289 -1.832,-0.467 -3.508,-0.853 -5.008,-1.152 0.801,1.164 1.657,2.396 2.566,3.694 1.124,1.606 2.023,3.147 2.67,4.579 0.813,1.795 1.113,3.37 0.905,4.802 C 66.156,4.742 64.559,6.838 60.915,7.123 58.212,7.334 55.469,6.972 52.77,6.046 51.23,5.518 48.024,4.329 45.907,3.536 45.087,3.23 44.472,2.998 44.268,2.924 43.834,2.788 42.86,2.449 39.515,1.141 37.089,0.192 34.058,-0.883 30.513,-2.061 26.934,-3.251 22.959,-4.503 18.702,-5.788 17.952,-6.015 17.2,-6.234 16.448,-6.446 c 1.337,2.278 2.118,4.522 2.314,6.683 0.259,2.86 -0.658,5.464 -2.662,7.519 -2.03,2.081 -5.227,3.24 -9.488,3.427 -2.609,0.115 -5.271,-0.053 -7.903,-0.502 -2.509,-0.427 -4.89,-0.97 -7.076,-1.61 -2.177,-0.637 -4.146,-1.32 -5.85,-2.028 -0.855,-0.356 -1.57,-0.661 -2.172,-0.922 -0.225,-0.063 -0.444,-0.135 -0.66,-0.212 -0.388,-0.141 -1.327,-0.5 -4.709,-1.977 -2.381,-1.04 -5.367,-2.231 -8.868,-3.547 -3.529,-1.328 -7.452,-2.732 -11.654,-4.18 -0.74,-0.256 -1.482,-0.504 -2.226,-0.744 1.249,2.33 1.942,4.602 2.055,6.767 0.148,2.867 -0.869,5.433 -2.951,7.41 -2.107,2.002 -5.345,3.036 -9.609,3.059 -2.612,0.013 -5.265,-0.257 -7.877,-0.807 -2.487,-0.523 -4.846,-1.157 -7.008,-1.882 -2.152,-0.721 -4.092,-1.481 -5.766,-2.253 -0.417,-0.193 -1.702,-0.719 -2.944,-1.231 -1.541,-0.634 -3.132,-1.292 -4.149,-1.749 -1.857,-0.835 -4.034,-1.788 -6.468,-2.836 -2.471,-1.065 -5.099,-2.184 -7.807,-3.329 -2.67,-1.128 -5.273,-2.178 -7.74,-3.117 -1.858,-0.708 -3.602,-1.32 -5.205,-1.825 0.308,1.135 0.077,2.079 -0.195,2.699 -0.259,0.676 -0.656,1.342 -1.184,1.985 0.298,0.048 0.59,0.118 0.873,0.207 1.346,0.426 2.39,1.127 3.088,2.086 0.842,1.16 1.046,2.572 0.564,3.966 -0.447,1.288 -1.402,2.312 -2.758,2.967 -0.106,0.052 -0.216,0.098 -0.328,0.139 -0.797,0.293 -1.955,0.668 -3.539,1.141 -1.726,0.515 -3.753,0.897 -6.022,1.131 -2.004,0.206 -4.154,0.266 -6.388,0.178 -0.271,-0.01 -0.544,-0.023 -0.818,-0.038 -2.719,-0.15 -5.463,-0.719 -8.151,-1.69 -2.289,-0.827 -4.531,-2.012 -6.663,-3.525 -0.283,-0.123 -0.554,-0.257 -0.819,-0.405 -0.88,-0.49 -2.375,-1.383 -4.696,-2.817 -2.154,-1.332 -4.683,-2.833 -7.513,-4.467 -2.817,-1.625 -5.758,-3.231 -8.742,-4.773 -2.864,-1.481 -5.483,-2.612 -7.791,-3.358 -1.899,-0.614 -3.474,-1.056 -4.699,-1.317 0.011,0.045 0.023,0.091 0.036,0.138 0.42,1.549 1.314,3.861 2.668,6.87 0.873,1.891 1.312,2.836 2.191,4.726 3.925,2.815 7.721,5.993 11.3,9.458 3.768,3.647 7.275,7.471 10.409,11.368 3.122,3.881 5.888,7.739 8.211,11.468 2.357,3.783 4.16,7.274 5.341,10.38 1.29,3.389 1.801,6.194 1.547,8.574 -0.354,3.321 -2.514,5.525 -5.908,6.048 -1.15,0.178 -2.34,0.244 -3.515,0.186 -1.991,-0.097 -3.992,-0.542 -5.946,-1.322 -2.83,-1.13 -5.65,-2.895 -8.367,-5.245 -2.609,-2.255 -5.163,-5.078 -7.588,-8.385 -2.373,-3.237 -4.619,-7.048 -6.753,-11.035 -1.295,-2.419 -2.767,-5.02 -4.243,-7.749 -1.422,-2.633 -2.942,-5.432 -4.515,-8.32 -0.913,-1.676 -2.441,-4.625 -3.551,-6.779 -0.443,-0.86 -0.896,-1.74 -1.175,-2.279 -16.687,-9.585 -39.154,-16.026 -57.983,-18.372 -0.21,-0.026 -0.418,-0.046 -0.62,-0.065 -2.589,-0.248 -4.591,0.055 -6.126,0.932 -1.692,0.966 -2.933,2.353 -3.796,4.245 -0.93,2.039 -1.326,4.565 -1.171,7.508 0.161,3.048 1.016,6.346 2.567,9.766 2.094,4.615 4.883,8.668 8.237,12.007 3.418,3.405 7.039,6.226 10.75,8.381 3.657,2.123 7.328,3.64 10.893,4.509 1.777,0.432 3.448,0.725 4.962,0.869 1.44,0.138 2.769,0.145 3.947,0.021 1.975,-0.206 3.331,-0.74 4.138,-1.623 0.714,-0.782 0.346,-2.289 -0.069,-3.406 -0.554,-1.49 -0.641,-2.845 -0.293,-4.026 0.458,-1.556 1.56,-2.702 3.101,-3.23 0.757,-0.26 1.565,-0.355 2.402,-0.281 0.685,0.06 1.384,0.236 2.077,0.522 1.212,0.501 2.335,1.367 3.438,2.648 0.012,0.014 0.024,0.029 0.036,0.043 3.465,4.174 5.571,7.831 6.386,11.193 0.881,3.635 0.51,6.771 -1.125,9.308 -1.843,2.86 -7.369,5.481 -10.524,6.337 -3.05,0.829 -6.583,1.068 -10.49,0.707 -0.003,-10e-4 -0.005,-10e-4 -0.009,-10e-4 -0.265,-0.025 -0.532,-0.052 -0.802,-0.082 -4.07,-0.456 -8.519,-1.6 -13.204,-3.408 -4.659,-1.798 -9.343,-4.338 -13.901,-7.546 -4.529,-3.187 -8.92,-7.145 -13.032,-11.76 -4.132,-4.638 -7.785,-10.132 -10.811,-16.306 -2.706,-5.521 -4.665,-11.022 -5.865,-16.314 -1.223,-5.398 -1.564,-10.281 -1.041,-14.506 0.566,-4.566 2.228,-8.23 4.92,-10.895 3.129,-3.096 10.534,-4.518 15.47,-3.898 20.62,2.588 41.217,9.762 59.743,19.217 -0.511,-1.772 -0.699,-3.362 -0.578,-4.815 0.225,-2.707 1.795,-4.861 4.411,-6.074 1.699,-0.788 3.969,-1.056 6.946,-0.829 1.067,0.082 2.257,0.235 3.526,0.438 2.78,0.446 5.841,1.236 9.039,2.369 3.089,1.094 6.192,2.359 9.226,3.76 2.865,1.323 5.68,2.699 8.375,4.097 -0.198,-1.532 -0.106,-2.826 0.273,-3.925 0.655,-1.898 2.086,-3.262 4.025,-3.845 1.084,-0.325 2.271,-0.456 3.534,-0.39 0.387,0.02 0.788,0.059 1.193,0.116 1.466,0.207 2.977,0.61 4.492,1.2 1.367,0.532 2.652,1.107 3.821,1.71 1.564,0.807 3.22,1.715 4.922,2.699 0.866,0.499 1.703,0.982 2.51,1.45 0.211,-0.663 0.538,-1.296 0.977,-1.89 1.676,-2.261 4.891,-2.67 7.154,-2.795 0.381,-0.021 0.799,-0.025 1.227,-0.01 1.731,0.061 3.73,0.422 6.115,1.1 2.597,0.738 5.441,1.65 8.455,2.707 3.029,1.062 6.142,2.253 9.255,3.537 2.301,0.95 4.493,1.863 6.537,2.727 0.06,-1.011 0.419,-2.196 1.369,-3.464 0.015,-0.02 0.03,-0.039 0.046,-0.059 0.647,-0.823 1.433,-1.671 2.335,-2.518 1.008,-0.947 2.228,-1.796 3.624,-2.529 1.376,-0.723 2.978,-1.315 4.758,-1.762 1.799,-0.452 3.807,-0.677 5.966,-0.668 0.092,0 0.139,0 0.231,10e-4 3.541,0.014 7.362,0.417 11.366,1.194 3.883,0.752 7.817,1.683 11.697,2.767 3.869,1.08 7.722,2.29 11.454,3.597 2.865,1.003 5.547,1.983 8.001,2.929 0.071,-0.949 0.405,-2.045 1.221,-3.227 0.015,-0.021 0.029,-0.041 0.044,-0.061 0.616,-0.847 1.368,-1.726 2.237,-2.607 0.972,-0.986 2.159,-1.881 3.525,-2.667 1.345,-0.774 2.923,-1.429 4.685,-1.944 1.782,-0.521 3.779,-0.824 5.936,-0.898 0.093,-0.003 0.139,-0.005 0.232,-0.008 3.539,-0.122 7.373,0.133 11.406,0.754 3.908,0.602 7.876,1.38 11.797,2.314 3.911,0.93 7.81,1.99 11.589,3.152 3.755,1.153 7.198,2.28 10.229,3.353 2.417,0.855 4.572,1.647 6.423,2.367 -0.157,-0.261 -0.312,-0.524 -0.466,-0.789 -0.905,-1.566 -1.575,-3.073 -1.99,-4.479 -0.512,-1.734 -0.579,-3.232 -0.21,-4.572 0.591,-2.154 2.568,-3.546 5.287,-3.734 2.534,-0.176 5.471,-0.005 8.987,0.511 3.304,0.484 6.829,1.155 10.476,1.989 3.568,0.816 7.251,1.725 10.941,2.703 1.919,0.509 3.766,1.011 5.525,1.503 -0.169,-1.054 -0.142,-2.106 0.081,-3.15 0.523,-2.445 2.316,-4.535 5.317,-6.227 2.462,-1.389 6.112,-2.305 11.163,-2.826 0.342,-0.036 0.691,-0.07 1.046,-0.101 3.876,-0.338 8.045,-0.343 12.39,-0.044 4.255,0.292 8.529,0.761 12.704,1.392 4.164,0.629 8.268,1.377 12.192,2.221 3.86,0.832 7.421,1.645 10.574,2.43 3.18,0.791 5.756,1.453 7.871,2.031 2.867,0.784 3.801,1.081 4.236,1.231 1.495,0.511 2.686,1.253 3.5,2.227 0.909,1.088 1.351,2.233 1.307,3.394 -0.061,1.564 -0.999,2.929 -2.562,3.734"
             style="fill:#1d1d1b;fill-opacity:1;fill-rule:nonzero;stroke:none"
             id="path78" /></g><g
           id="g80"
           transform="translate(486.7298,329.8036)"><path
             d="m 0,0 c -1.778,0.147 -3.418,-0.306 -4.736,-1.309 -1.318,-1.002 -2.075,-2.345 -2.193,-3.881 -0.126,-1.636 0.412,-3.13 1.55,-4.325 1.131,-1.192 2.66,-1.9 4.423,-2.046 1.741,-0.144 3.366,0.291 4.705,1.262 1.367,0.988 2.171,2.383 2.317,4.034 0.137,1.551 -0.414,3.013 -1.601,4.227 C 3.302,-0.851 1.756,-0.145 0,0"
             style="fill:#1d1d1b;fill-opacity:1;fill-rule:nonzero;stroke:none"
             id="path82" /></g><g
           id="g84"
           transform="translate(483.0896,321.4328)"><path
             d="M 0,0 C 1.497,-0.124 2.817,0.229 3.962,1.059 5.105,1.888 5.74,3.01 5.862,4.427 5.972,5.702 5.532,6.846 4.54,7.858 3.549,8.869 2.297,9.439 0.791,9.564 -0.718,9.689 -2.026,9.33 -3.13,8.492 -4.235,7.653 -4.837,6.597 -4.938,5.321 -5.051,3.902 -4.627,2.693 -3.676,1.69 -2.725,0.688 -1.5,0.124 0,0"
             style="fill:#ffffff;fill-opacity:1;fill-rule:nonzero;stroke:none"
             id="path86" /></g><g
           id="g88"
           transform="translate(250.3408,326.8246)"><path
             d="m 0,0 c 1.856,3.321 3.681,6.707 5.475,10.16 1.793,3.452 3.578,6.599 5.348,9.437 1.77,2.838 3.519,5.174 5.238,7.008 1.718,1.832 3.387,2.788 4.999,2.867 0.966,0.047 1.34,-0.595 1.122,-1.921 -0.219,-1.327 -0.861,-3.084 -1.917,-5.27 C 19.208,20.093 17.746,17.6 15.892,14.798 14.038,11.996 11.977,9.108 9.716,6.133 7.453,3.157 5.003,0.237 2.366,-2.631 -0.273,-5.5 -2.934,-8.091 -5.622,-10.408 -3.389,-6.241 -2.265,-4.159 0,0 m 322.916,-31.305 c -0.479,0.247 -1.179,0.22 -2.091,-0.083 -0.662,-0.195 -1.878,-0.527 -3.644,-1 -1.768,-0.475 -3.898,-1.026 -6.391,-1.66 -2.494,-0.634 -5.243,-1.294 -8.243,-1.982 -3.003,-0.688 -6.055,-1.343 -9.152,-1.963 -3.1,-0.622 -6.127,-1.171 -9.078,-1.647 -2.955,-0.476 -5.661,-0.803 -8.09,-0.948 -5.092,-0.303 -8.929,-0.217 -11.457,0.226 -2.528,0.444 -4.151,1.163 -4.87,2.165 -0.718,1.001 -0.712,2.217 0.02,3.642 0.731,1.425 1.841,2.94 3.339,4.481 2.08,2.14 4.165,3.568 6.173,4.283 2.006,0.713 3.894,1.009 5.656,0.886 1.762,-0.124 3.32,-0.495 4.67,-1.113 1.35,-0.619 2.398,-1.116 3.143,-1.487 0.744,-0.372 1.439,-0.507 2.084,-0.404 0.641,0.103 1.162,0.328 1.559,0.676 0.396,0.345 0.58,0.738 0.552,1.169 -0.028,0.432 -0.377,0.836 -1.044,1.196 -3.917,2.118 -7.637,3.422 -11.058,3.942 -3.424,0.521 -6.531,0.494 -9.316,-0.073 -2.504,-0.51 -4.753,-1.358 -6.771,-2.504 -0.217,-0.07 -0.44,-0.161 -0.669,-0.274 -0.488,-0.239 -1.702,-0.651 -3.607,-1.251 -1.908,-0.6 -4.215,-1.288 -6.917,-2.07 -2.703,-0.783 -5.601,-1.59 -8.687,-2.425 -3.087,-0.835 -6.007,-1.603 -8.757,-2.303 -2.752,-0.7 -5.155,-1.223 -7.207,-1.561 -2.053,-0.339 -3.422,-0.415 -4.109,-0.22 -0.453,0.176 -0.432,0.728 0.067,1.653 0.498,0.923 1.186,2.03 2.067,3.318 0.879,1.286 1.828,2.657 2.843,4.111 1.013,1.453 1.809,2.816 2.383,4.09 0.573,1.273 0.796,2.346 0.669,3.209 -0.128,0.865 -0.898,1.356 -2.309,1.466 -2.194,0.172 -4.404,-0.125 -6.625,-0.886 -2.22,-0.761 -8.282,-3.05 -8.538,-3.132 -0.558,-0.177 -2.095,-0.747 -4.588,-1.721 -2.494,-0.975 -5.56,-2.061 -9.188,-3.266 -3.63,-1.206 -7.605,-2.456 -11.918,-3.758 -4.316,-1.303 -8.625,-2.356 -12.932,-3.159 2.487,1.81 4.472,3.832 5.945,6.074 1.474,2.241 2.304,4.372 2.483,6.39 0.178,2.019 -0.422,3.742 -1.807,5.16 -1.385,1.418 -3.729,2.207 -7.027,2.352 -2.354,0.103 -4.723,-0.047 -7.096,-0.451 -2.373,-0.404 -4.593,-0.91 -6.655,-1.512 -2.064,-0.604 -3.89,-1.237 -5.478,-1.896 -0.962,-0.4 -1.744,-0.735 -2.385,-1.015 -0.19,-0.044 -0.385,-0.1 -0.588,-0.174 -0.55,-0.198 -2.063,-0.827 -4.515,-1.897 -2.454,-1.071 -5.475,-2.274 -9.053,-3.618 -3.579,-1.346 -7.501,-2.748 -11.76,-4.216 -4.261,-1.468 -8.524,-2.687 -12.796,-3.656 2.415,1.905 4.319,4.002 5.705,6.299 1.385,2.295 2.133,4.458 2.234,6.481 0.1,2.025 -0.567,3.723 -2.005,5.086 -1.438,1.364 -3.81,2.062 -7.11,2.08 -2.357,0.012 -4.717,-0.23 -7.071,-0.725 -2.358,-0.496 -4.555,-1.086 -6.592,-1.768 -2.038,-0.683 -3.837,-1.386 -5.399,-2.106 -1.012,-0.468 -5.268,-2.159 -7.134,-2.997 -1.867,-0.838 -4.046,-1.791 -6.526,-2.859 -2.483,-1.069 -5.097,-2.182 -7.838,-3.339 -2.743,-1.159 -5.367,-2.215 -7.869,-3.167 -2.504,-0.953 -4.776,-1.727 -6.816,-2.322 -2.042,-0.594 -3.57,-0.871 -4.576,-0.836 -1.087,0.038 -1.564,0.269 -1.422,0.7 0.141,0.43 0.453,0.938 0.94,1.525 0.486,0.584 0.992,1.206 1.516,1.862 0.523,0.656 0.662,1.23 0.413,1.72 -0.173,0.491 -0.5,0.998 -0.985,1.516 -0.485,0.517 -1.027,0.98 -1.626,1.386 -0.599,0.407 -1.236,0.689 -1.904,0.843 -0.669,0.154 -1.352,0.077 -2.043,-0.232 -0.692,-0.309 -1.956,-1.03 -3.786,-2.168 -1.83,-1.136 -3.733,-2.333 -5.705,-3.589 -1.974,-1.257 -3.794,-2.351 -5.461,-3.28 -1.67,-0.93 -2.662,-1.298 -2.982,-1.099 -0.239,0.13 -0.246,0.682 -0.019,1.653 0.226,0.971 0.698,2.115 1.416,3.429 0.718,1.313 1.691,2.675 2.918,4.082 1.226,1.405 2.781,2.576 4.662,3.507 1.879,0.931 4.071,1.499 6.572,1.699 2.5,0.2 5.338,-0.217 8.502,-1.254 0.871,-0.328 1.616,-0.393 2.236,-0.197 0.619,0.196 1.061,0.476 1.326,0.84 0.262,0.363 0.309,0.792 0.138,1.284 -0.171,0.491 -0.536,0.873 -1.092,1.141 -0.714,0.262 -1.825,0.621 -3.328,1.07 -1.505,0.449 -3.285,0.781 -5.334,0.993 -2.049,0.211 -4.253,0.254 -6.604,0.125 -2.351,-0.129 -4.71,-0.619 -7.068,-1.471 -2.146,-0.774 -4.188,-1.89 -6.133,-3.311 -0.259,-0.096 -0.528,-0.212 -0.817,-0.373 -0.84,-0.468 -2.363,-1.38 -4.563,-2.738 -2.201,-1.359 -4.74,-2.865 -7.614,-4.523 -2.876,-1.658 -5.84,-3.275 -8.898,-4.855 -3.058,-1.58 -5.839,-2.778 -8.352,-3.59 -2.512,-0.811 -4.517,-1.345 -6.015,-1.595 -1.498,-0.251 -2.505,-0.058 -3.019,0.582 -0.514,0.639 -0.543,1.813 -0.084,3.522 0.459,1.707 1.393,4.146 2.812,7.313 1.017,2.21 1.528,3.315 2.553,5.524 4.047,2.847 7.911,6.056 11.599,9.632 3.687,3.574 7.059,7.26 10.107,11.058 3.048,3.798 5.705,7.513 7.964,11.149 2.257,3.635 3.948,6.917 5.059,9.851 1.11,2.932 1.566,5.355 1.358,7.267 -0.207,1.911 -1.213,3.001 -3.002,3.276 -2.442,0.376 -4.905,0.084 -7.362,-0.897 C 13.57,32.081 11.123,30.543 8.698,28.449 6.272,26.354 3.903,23.74 1.602,20.61 -0.699,17.478 -2.854,13.826 -4.94,9.94 -6.24,7.518 -7.722,4.911 -9.206,2.174 c -1.485,-2.738 -2.999,-5.516 -4.539,-8.334 -1.541,-2.82 -4.823,-9.259 -5.043,-9.62 -16.771,-10.756 -41.709,-17.56 -61.137,-19.657 -3.216,-0.347 -6.015,0.084 -8.295,1.385 -2.279,1.3 -3.989,3.184 -5.123,5.66 -1.134,2.474 -1.62,5.421 -1.447,8.845 0.174,3.423 1.098,7.041 2.804,10.815 2.257,4.995 5.234,9.325 8.881,12.961 3.645,3.635 7.473,6.617 11.465,8.936 3.99,2.319 7.968,3.96 11.916,4.922 3.946,0.961 7.375,1.286 10.27,0.983 2.894,-0.304 5.037,-1.22 6.42,-2.738 1.384,-1.518 1.523,-3.656 0.506,-6.377 -0.328,-0.878 -0.397,-1.624 -0.224,-2.215 0.172,-0.591 0.507,-0.971 1.002,-1.141 0.496,-0.171 1.071,-0.12 1.729,0.152 0.656,0.271 1.362,0.83 2.078,1.678 3.127,3.704 5.044,7.076 5.735,9.951 0.69,2.871 0.44,5.243 -0.765,7.105 -1.203,1.861 -5.752,4.168 -8.539,4.924 -2.787,0.756 -6.06,0.928 -9.804,0.509 -3.745,-0.419 -7.82,-1.472 -12.204,-3.163 -4.387,-1.692 -8.755,-4.061 -13.089,-7.109 -4.336,-3.047 -8.49,-6.792 -12.451,-11.229 -3.961,-4.438 -7.43,-9.645 -10.357,-15.597 -2.622,-5.332 -4.498,-10.567 -5.663,-15.664 -1.165,-5.097 -1.496,-9.606 -1.02,-13.521 0.477,-3.915 1.823,-6.964 4.027,-9.15 2.204,-2.187 8.485,-3.456 12.544,-2.945 23.154,2.914 47.067,11.457 67.049,23.662 -0.614,-1.424 -2.239,-4.768 -2.802,-6.119 -0.983,-2.362 -1.405,-4.357 -1.273,-5.986 0.133,-1.63 0.987,-2.808 2.56,-3.538 1.573,-0.73 4.362,-0.743 8.335,-0.106 2.596,0.415 5.405,1.143 8.4,2.205 2.993,1.061 5.963,2.272 8.909,3.633 2.947,1.361 5.8,2.76 8.562,4.201 2.759,1.44 5.239,2.803 7.436,4.093 0.049,0.029 0.093,0.055 0.141,0.083 -1.325,-2.437 -2.197,-4.464 -2.57,-6.032 -0.411,-1.73 -0.454,-3.069 -0.131,-4.012 0.323,-0.943 0.938,-1.55 1.843,-1.822 0.906,-0.272 1.954,-0.323 3.146,-0.155 1.193,0.168 2.414,0.496 3.669,0.985 1.254,0.488 2.411,1.005 3.472,1.554 1.513,0.781 3.103,1.654 4.77,2.617 1.665,0.961 3.221,1.862 4.665,2.705 1.442,0.84 2.64,1.546 3.593,2.116 0.95,0.569 1.503,0.891 1.657,0.969 -0.152,-0.149 -0.522,-0.643 -1.112,-1.482 -0.592,-0.841 -1.002,-1.783 -1.233,-2.822 -0.232,-1.041 -0.04,-1.975 0.574,-2.805 0.614,-0.83 2.127,-1.301 4.529,-1.433 1.549,-0.085 3.593,0.233 6.127,0.954 2.534,0.72 5.279,1.601 8.239,2.64 2.958,1.038 5.979,2.193 9.062,3.466 3.082,1.272 5.962,2.478 8.632,3.62 2.668,1.142 4.956,2.148 6.86,3.022 1.251,0.574 6.964,2.903 8.408,3.48 1.442,0.576 2.849,1.079 4.218,1.51 1.368,0.43 2.622,0.769 3.757,1.019 1.133,0.249 2.056,0.372 2.761,0.371 1.645,-0.002 2.723,-0.416 3.228,-1.233 0.506,-0.817 0.579,-1.868 0.224,-3.146 -0.356,-1.279 -1.046,-2.628 -2.06,-4.046 -1.016,-1.42 -2.245,-2.77 -3.681,-4.048 -1.438,-1.28 -3.029,-2.331 -4.771,-3.153 -1.742,-0.822 -3.466,-1.24 -5.17,-1.251 -0.853,-0.006 -1.396,0.221 -1.632,0.682 -0.236,0.459 -0.357,1.01 -0.362,1.65 -0.005,0.639 -0.029,1.297 -0.074,1.972 -0.044,0.673 -0.222,1.269 -0.539,1.755 -0.687,1.056 -1.667,1.639 -2.876,1.733 -1.208,0.095 -2.297,-0.113 -3.265,-0.622 -0.966,-0.508 -1.659,-1.23 -2.074,-2.159 -0.414,-0.929 -0.228,-1.944 0.564,-2.978 0.538,-0.702 1.222,-1.424 2.005,-2.161 0.784,-0.738 1.741,-1.403 2.868,-1.995 1.129,-0.594 2.448,-1.08 3.958,-1.459 1.511,-0.379 3.194,-0.565 5.049,-0.557 0.093,0 0.139,0 0.232,0.001 3.323,0.013 6.877,0.39 10.67,1.126 3.792,0.735 7.592,1.634 11.401,2.699 3.806,1.063 7.546,2.238 11.221,3.526 3.673,1.287 6.987,2.516 9.935,3.691 2.948,1.175 5.433,2.211 7.45,3.114 0.992,0.445 1.816,0.819 2.474,1.126 0.407,-0.043 0.913,0.054 1.491,0.305 1.339,0.579 2.753,1.158 4.218,1.679 1.463,0.52 2.889,0.969 4.274,1.346 1.383,0.377 2.649,0.668 3.795,0.873 1.141,0.205 2.068,0.293 2.773,0.265 1.645,-0.066 2.704,-0.521 3.178,-1.357 0.475,-0.837 0.507,-1.889 0.103,-3.153 -0.405,-1.264 -1.147,-2.584 -2.216,-3.963 -1.07,-1.38 -2.35,-2.681 -3.835,-3.903 -1.486,-1.223 -3.116,-2.212 -4.889,-2.966 -1.774,-0.755 -3.512,-1.106 -5.216,-1.051 -0.853,0.028 -1.386,0.274 -1.605,0.744 -0.218,0.469 -0.318,1.023 -0.298,1.663 0.02,0.64 0.021,1.297 0.003,1.974 -0.018,0.674 -0.174,1.276 -0.471,1.774 -0.645,1.082 -1.603,1.702 -2.807,1.843 -1.204,0.141 -2.3,-0.024 -3.286,-0.495 -0.985,-0.471 -1.706,-1.166 -2.157,-2.078 -0.45,-0.911 -0.303,-1.933 0.448,-2.997 0.511,-0.723 1.167,-1.471 1.92,-2.237 0.755,-0.767 1.687,-1.469 2.79,-2.104 1.105,-0.637 2.405,-1.174 3.899,-1.611 1.495,-0.438 3.17,-0.688 5.024,-0.752 0.092,-0.003 0.139,-0.005 0.231,-0.008 3.322,-0.115 6.89,0.125 10.709,0.713 3.819,0.589 7.65,1.34 11.498,2.257 3.846,0.915 7.63,1.944 11.354,3.09 3.72,1.144 7.081,2.244 10.074,3.304 2.992,1.06 5.516,2 7.567,2.824 1.516,0.611 8.808,3.039 8.976,3.171 -0.255,-0.268 -0.729,-0.858 -1.421,-1.769 -0.692,-0.912 -1.474,-1.981 -2.341,-3.201 -0.867,-1.222 -1.699,-2.519 -2.495,-3.889 -0.797,-1.371 -1.37,-2.65 -1.723,-3.836 -0.353,-1.187 -0.419,-2.182 -0.202,-2.979 0.218,-0.799 0.945,-1.239 2.179,-1.325 2.24,-0.155 4.966,0.008 8.187,0.481 3.218,0.472 6.614,1.119 10.183,1.936 3.568,0.817 7.172,1.707 10.811,2.673 3.637,0.965 6.969,1.893 9.99,2.787 1.14,0.337 2.193,0.654 3.203,0.961 -0.821,-0.99 -1.57,-2.034 -2.235,-3.14 -0.975,-1.622 -1.298,-3.198 -0.974,-4.728 0.324,-1.53 1.559,-2.895 3.699,-4.102 2.14,-1.208 5.722,-2.033 10.727,-2.47 3.694,-0.322 7.632,-0.324 11.797,-0.038 4.165,0.287 8.295,0.74 12.397,1.361 4.1,0.62 8.088,1.346 11.959,2.18 3.871,0.835 7.358,1.633 10.453,2.404 3.093,0.77 5.691,1.438 7.782,2.011 2.092,0.572 3.435,0.965 4.014,1.163 0.9,0.308 1.584,0.709 2.013,1.224 0.427,0.513 0.635,0.988 0.617,1.42 -0.017,0.432 -0.268,0.774 -0.748,1.021"
             style="fill:#ffffff;fill-opacity:1;fill-rule:nonzero;stroke:none"
             id="path90" /></g></g></g></g></svg>
